<svg data-name="Layer 1" xmlns="http://www.w3.org/2000/svg" viewBox="0 0 128 128"><path d="M15.469 87.565h8.641v12.823h-8.641zm0-23.131h8.641v12.823h-8.641zm31.276-8.608h11.819v12.823H46.745zm0-23.131h11.819v12.823H46.745zm0 46.511H61.71v26.727H46.745zm57.145 8.359h8.641v12.823h-8.641zm0-23.131h8.641v12.823h-8.641zm-34.454-8.608h11.819v12.823H69.436zm0-23.131h11.819v12.823H69.436zM66.29 79.206h14.965v26.727H66.29z" fill="#2e79bd"/><path d="M96.245 43.748V19.72L64 4.912 31.755 19.721v24.027H1.784v79.34h124.432v-79.34zm-64.49 71.287H7.824V49.788h23.93zm58.45 0h-52.41V23.593L64 11.558l26.206 12.035zm29.971 0h-23.93V49.788h23.93z" fill="#2d3e50"/></svg>