<svg version="1.1" id="Layer_1" xmlns="http://www.w3.org/2000/svg" x="0" y="0" width="243" height="133" xml:space="preserve"><style>.st1{fill:#004a76}</style><path d="M211 19.5H34c-7.44 0-13.5 6.06-13.5 13.5v66c0 7.44 6.06 13.5 13.5 13.5h143.42l21.77 11.03 5.25-11.03H211c7.44 0 13.5-6.06 13.5-13.5V33c0-7.44-6.06-13.5-13.5-13.5z" fill="#fff"/><path class="st1" d="M68.67 107.5H34c-5.79 0-10.5-4.71-10.5-10.5V61.11c-1.09-.42-2.09-.94-3-1.58V99c0 7.44 6.06 13.5 13.5 13.5h33.83l.84-5zM211 19.5H44.43c.9.86 1.66 1.87 2.29 3H209c5.79 0 10.5 4.71 10.5 10.5v64c0 5.79-4.71 10.5-10.5 10.5h-6.45l-4.74 9.97-19.67-9.97H80.86l-.86 5h97.42l21.77 11.03 5.25-11.03H211c7.44 0 13.5-6.06 13.5-13.5V33c0-7.44-6.06-13.5-13.5-13.5zM46.22 31.05c0 1.02-.06 1.86-.12 2.4l-8.82.54c.06-.9.06-1.98.06-2.94 0-3.42-1.08-5.64-3.9-5.64-2.7 0-4.68 2.64-5.82 7.5-1.2 4.86-1.74 9.06-1.74 12.66 0 4.8 1.44 7.02 4.08 7.02 3.06 0 4.86-2.46 6.06-7.98l8.46 1.5c-1.8 9.18-7.02 13.62-14.52 13.62-8.7 0-13.38-5.58-13.38-15.6 0-4.62.78-9.18 2.34-13.56 3.12-8.82 8.46-12.3 15.3-12.3 7.38 0 12 4.62 12 12.78z"/><path class="st1" d="M70.48 73.59l-8.04 2.1c-.9-4.32-2.46-5.28-4.56-5.28-2.34 0-4.2 1.68-4.2 4.08 0 1.98.12 2.76 6.42 5.94 2.7 1.38 4.68 2.58 5.7 3.54 2.1 1.92 3.36 4.2 3.36 7.56 0 2.4-.66 4.8-1.8 6.96-2.4 4.5-6.72 6.24-12.42 6.24-8.1 0-12.78-4.02-13.74-12l8.1-1.5c1.02 4.74 2.64 6.36 5.94 6.36 3.18 0 4.98-1.68 4.98-4.38 0-2.46-1.02-3.78-5.52-5.82-7.38-3.36-9.6-6.66-9.6-11.16 0-6.36 4.26-12.96 13.02-12.96 6.66 0 10.92 3.54 12.36 10.32z"/><path d="M68.18 39.59c0 .68-.05 1.3-.52 4.28l-1.72 10.54c-.21 1.41-.31 2.19-.31 2.97 0 .57.05 1.15.16 1.62H58.9c-.16-.63-.21-.94-.21-1.51 0-.52.05-.89.26-1.88-1.67 3.08-3.76 4.02-6.63 4.02-4.02 0-6.16-2.5-6.16-6.52 0-6.16 4.49-9.86 14.87-10.18.16-.99.37-2.14.37-3.18 0-1.72-1.1-2.71-2.61-2.71-1.93 0-3.03 1.25-3.5 4.33l-6.47-.78c1.2-5.58 4.64-7.98 10.07-7.98 5.95-.01 9.29 3.02 9.29 6.98zM55.87 55.2c2.71 0 3.55-2.4 4.28-6.84l.31-1.83c-4.75.31-7.1 3.18-7.1 5.9 0 1.62.89 2.77 2.51 2.77zM77.31 59h-7.1l5.84-34.81h7.1L77.31 59zm27.35-19.41c0 .68-.05 1.3-.52 4.28l-1.72 10.54c-.21 1.41-.31 2.19-.31 2.97 0 .57.05 1.15.16 1.62h-6.89c-.16-.63-.21-.94-.21-1.51 0-.52.05-.89.26-1.88-1.67 3.08-3.76 4.02-6.63 4.02-4.02 0-6.16-2.5-6.16-6.52 0-6.16 4.49-9.86 14.87-10.18.16-.99.37-2.14.37-3.18 0-1.72-1.1-2.71-2.61-2.71-1.93 0-3.03 1.25-3.5 4.33l-6.47-.78c1.2-5.58 4.64-7.98 10.07-7.98 5.95-.01 9.29 3.02 9.29 6.98zM92.34 55.2c2.71 0 3.55-2.4 4.28-6.84l.31-1.83c-4.75.31-7.1 3.18-7.1 5.9 0 1.62.89 2.77 2.51 2.77zm25.31-19.16c1.3-2.35 3.18-3.39 5.48-3.39 4.38 0 6.73 2.92 6.73 9.03 0 3.44-.57 6.73-1.62 9.86-2.14 6.47-6.11 8.09-9.65 8.09-3.13 0-5.43-1.2-6.21-4.59-.63 1.3-1.3 2.92-1.67 3.97h-3.97l5.79-34.81h7.1l-1.98 11.84zm.05 18.69c1.25 0 2.24-.89 2.82-2.71 1.1-3.55 2.14-8.19 2.14-10.96 0-2.24-.73-3.5-2.3-3.5-1.2 0-2.19.89-2.77 2.14-.37.78-2.5 8.04-2.5 11.79 0 1.93.89 3.24 2.61 3.24zm35.85-15.14c0 .68-.05 1.3-.52 4.28l-1.72 10.54c-.21 1.41-.31 2.19-.31 2.97 0 .57.05 1.15.16 1.62h-6.89c-.16-.63-.21-.94-.21-1.51 0-.52.05-.89.26-1.88-1.67 3.08-3.76 4.02-6.63 4.02-4.02 0-6.16-2.5-6.16-6.52 0-6.16 4.49-9.86 14.87-10.18.16-.99.37-2.14.37-3.18 0-1.72-1.1-2.71-2.61-2.71-1.93 0-3.03 1.25-3.5 4.33l-6.47-.78c1.2-5.58 4.64-7.98 10.07-7.98 5.95-.01 9.29 3.02 9.29 6.98zM141.23 55.2c2.71 0 3.55-2.4 4.28-6.84l.31-1.83c-4.75.31-7.1 3.18-7.1 5.9.01 1.62.89 2.77 2.51 2.77zm32.62-15.29l-5.32 1.3c-.37-2.71-1.46-3.81-3.29-3.81-1.51 0-2.77.99-2.77 2.4s.52 1.98 4.02 3.6c2.19.99 3.76 1.88 4.7 2.87 1.46 1.51 1.72 3.13 1.72 4.59 0 4.85-3.08 8.77-9.55 8.77-3.86 0-8.98-1.2-9.5-7.78l5.79-.83c.47 2.66 1.67 3.71 3.71 3.71 1.83 0 3.03-.73 3.03-2.35 0-1.57-.99-2.3-4.12-3.6-4.8-1.98-6.05-4.28-6.05-7.36 0-4.38 2.97-8.77 9.08-8.77 4.89 0 7.87 2.3 8.55 7.26zm23.11-.32c0 .68-.05 1.3-.52 4.28l-1.72 10.54c-.21 1.41-.31 2.19-.31 2.97 0 .57.05 1.15.16 1.62h-6.89c-.16-.63-.21-.94-.21-1.51 0-.52.05-.89.26-1.88-1.67 3.08-3.76 4.02-6.63 4.02-4.02 0-6.16-2.5-6.16-6.52 0-6.16 4.49-9.86 14.87-10.18.16-.99.37-2.14.37-3.18 0-1.72-1.1-2.71-2.61-2.71-1.93 0-3.03 1.25-3.5 4.33l-6.47-.78c1.2-5.58 4.64-7.98 10.07-7.98 5.95-.01 9.29 3.02 9.29 6.98zM184.65 55.2c2.71 0 3.55-2.4 4.28-6.84l.31-1.83c-4.75.31-7.1 3.18-7.1 5.9 0 1.62.89 2.77 2.51 2.77zm32.61-15.29l-5.32 1.3c-.37-2.71-1.46-3.81-3.29-3.81-1.51 0-2.77.99-2.77 2.4s.52 1.98 4.02 3.6c2.19.99 3.76 1.88 4.7 2.87 1.46 1.51 1.72 3.13 1.72 4.59 0 4.85-3.08 8.77-9.55 8.77-3.86 0-8.98-1.2-9.5-7.78l5.79-.83c.47 2.66 1.67 3.71 3.71 3.71 1.83 0 3.03-.73 3.03-2.35 0-1.57-.99-2.3-4.12-3.6-4.8-1.98-6.05-4.28-6.05-7.36 0-4.38 2.97-8.77 9.08-8.77 4.9 0 7.87 2.3 8.55 7.26zM94.86 87.1c0 3.29-.52 6.52-1.51 9.65-1.98 6.37-5.58 7.88-8.82 7.88-2.56 0-4.23-.99-5.11-3.44l-1.98 11.53h-7.1l5.79-34.44h6.11l-.57 3.5c1.67-2.87 3.81-4.12 6.52-4.12 4.32-.01 6.67 3.17 6.67 9.44zM82.49 99.73c1.36 0 2.35-.83 3.03-2.45 1.46-3.5 2.19-8.98 2.19-11.64 0-1.88-.89-3.08-2.35-3.08-1.04 0-2.35.52-3.34 3.86-1.3 4.49-1.83 7.93-1.83 10.28 0 1.88.79 3.03 2.3 3.03zm36.27-11.38c0 2.14-.1 3.08-.26 3.97h-13.72c-.16.89-.21 1.88-.21 2.87 0 2.97.94 4.54 2.97 4.54s3.13-1.1 4.12-4.44l5.79 1.04c-1.77 5.58-4.7 8.3-10.33 8.3-6.58 0-9.6-4.44-9.6-11.06 0-8.56 4.7-15.92 12-15.92 5.17 0 9.24 3.55 9.24 10.7zM112.39 86c0-2.45-.94-3.91-2.87-3.91-2.14 0-3.6 2.35-4.17 6.16h6.84c.15-.84.2-1.41.2-2.25zm30.37 2.35c0 2.14-.1 3.08-.26 3.97h-13.72c-.16.89-.21 1.88-.21 2.87 0 2.97.94 4.54 2.97 4.54s3.13-1.1 4.12-4.44l5.79 1.04c-1.77 5.58-4.7 8.3-10.33 8.3-6.58 0-9.6-4.44-9.6-11.06 0-8.56 4.7-15.92 12-15.92 5.17 0 9.24 3.55 9.24 10.7zM136.39 86c0-2.45-.94-3.91-2.87-3.91-2.14 0-3.6 2.35-4.17 6.16h6.84c.15-.84.2-1.41.2-2.25zm29.85 1.41l-6.21.31c-.05-3.08-.94-4.64-2.66-4.64-1.62 0-2.82 1.41-3.6 4.28-.78 2.82-1.2 5.74-1.2 8.04 0 2.5 1.2 3.81 2.82 3.81 1.72 0 2.97-1.67 3.81-4.96l6.05.83c-1.51 6.26-5.17 9.55-10.44 9.55-6 0-9.34-4.02-9.34-10.85 0-7.1 3.44-16.12 12.16-16.12 5.58-.01 8.61 3.49 8.61 9.75zm11.69-6.68c1.3-2.14 3.24-3.08 5.95-3.08 3.81 0 6.11 2.19 6.11 5.58 0 1.3-.21 2.61-.57 4.85L186 107l-6.35-3 2.66-15.97c.26-1.57.42-2.66.42-3.03 0-1.25-.89-1.93-2.14-1.93-2.19 0-3.34 1.62-3.86 4.8L174.01 104h-7.1l5.79-34.81h7.15l-1.92 11.54z" fill="#007e9c"/></svg>