<svg data-name="Layer 1" xmlns="http://www.w3.org/2000/svg" viewBox="0 0 25 25"><path d="M24.82 10L21 6.84V1.5a.49.49 0 00-.5-.5h-3a.49.49 0 00-.5.5v2.06L12.82.12a.51.51 0 00-.64 0L.18 10a.5.5 0 00-.08.69l1.48 1.91a.5.5 0 00.34.2.54.54 0 00.37-.11L12.5 4.3l10.21 8.37a.51.51 0 00.32.11.5.5 0 00.34-.2l1.48-1.91a.5.5 0 00-.03-.67zM12.5 5.6L3 13.37v10.38A1.27 1.27 0 004.29 25h16.42A1.27 1.27 0 0022 23.75V13.37zM12 24H7v-7.5a.49.49 0 01.5-.5h4a.49.49 0 01.5.5zm7-4.5a.5.5 0 01-.5.5h-3a.5.5 0 01-.5-.5v-5a.49.49 0 01.5-.5h3a.49.49 0 01.5.5z" fill="#0e1d25"/></svg>