<svg data-name="Layer 1" xmlns="http://www.w3.org/2000/svg" viewBox="0 0 25 25"><path d="M14.75 8h-4.5A1.25 1.25 0 009 9.25v1.5A1.25 1.25 0 0010.25 12h4.5A1.25 1.25 0 0016 10.75v-1.5A1.25 1.25 0 0014.75 8zm.25 2.75a.25.25 0 01-.25.25h-4.5a.25.25 0 01-.25-.25v-1.5a.25.25 0 01.25-.25h4.5a.25.25 0 01.25.25z" fill="#0e1d25"/><path d="M22 13v-2.5A6.51 6.51 0 0016 4v-.42a3.5 3.5 0 10-7 0V4a6.51 6.51 0 00-6 6.5V13a3.28 3.28 0 00-3 3.5v5.25A1.25 1.25 0 001.25 23H3v.75A1.25 1.25 0 004.25 25h16.5A1.25 1.25 0 0022 23.75V23h1.75A1.25 1.25 0 0025 21.75V16.5a3.28 3.28 0 00-3-3.5zM3 22H1.25a.25.25 0 01-.25-.25V16.5A2.3 2.3 0 013 14zm7-18.42a2.5 2.5 0 115 0V4h-5zM17 24H8v-5h9zm0-6H8v-1.75a.25.25 0 01.25-.25h8.5a.25.25 0 01.25.25zm4 5.74a.25.25 0 01-.25.25H18v-7.74A1.24 1.24 0 0016.75 15h-8.5A1.24 1.24 0 007 16.25V24H4.25a.25.25 0 01-.25-.25V10.5A5.51 5.51 0 019.5 5h6a5.51 5.51 0 015.5 5.5zm3-2a.25.25 0 01-.25.25H22V14a2.3 2.3 0 012 2.5z" fill="#0e1d25"/></svg>