<svg data-name="Layer 1" xmlns="http://www.w3.org/2000/svg" viewBox="0 0 25 25"><path data-name="Laptop Computer" d="M20.5 3h-16a.5.5 0 00-.5.5v9a.5.5 0 00.5.5h16a.5.5 0 00.5-.5v-9a.5.5 0 00-.5-.5zm-.5 9H5V4h15zm5 9.36l-2-7V3a2 2 0 00-2-2H4a2 2 0 00-2 2v11.37l-2 7a.53.53 0 000 .14v1.26A1.25 1.25 0 001.25 24h22.5A1.25 1.25 0 0025 22.75V21.5a.53.53 0 000-.14zM2.86 15h19.28l1.7 6H1.16zM3 3a1 1 0 011-1h17a1 1 0 011 1v11H3zm20.75 20H1.25a.26.26 0 01-.25-.25V22h23v.75a.26.26 0 01-.25.25zm-15.1-3.19A.5.5 0 009 20h7a.5.5 0 00.49-.61l-.44-2a.5.5 0 00-.49-.39h-6a.5.5 0 00-.49.39l-.46 2a.5.5 0 00.04.42zM9.9 18h5.24l.22 1H9.67z" fill="#0e1d25"/></svg>